<?xml version="1.0" standalone="no"?><!DOCTYPE svg PUBLIC "-//W3C//DTD SVG 1.1//EN" "http://www.w3.org/Graphics/SVG/1.1/DTD/svg11.dtd"><svg t="1572858206961" class="icon" viewBox="0 0 1024 1024" version="1.1" xmlns="http://www.w3.org/2000/svg" p-id="2903" xmlns:xlink="http://www.w3.org/1999/xlink" width="32" height="32"><defs><style type="text/css"></style></defs><path d="M643.3024 1024a25.6128 25.6128 0 0 1-25.2416-29.9264l23.6416-137.7792-100.0832-97.5616a25.6 25.6 0 0 1 14.1824-43.6736l138.3296-20.0832 61.8368-125.3248a25.6 25.6 0 0 1 45.9136-0.0128l61.8752 125.3376 138.3296 20.0832a25.6 25.6 0 0 1 14.1824 43.6736l-100.0832 97.5616 23.6416 137.7792a25.6128 25.6128 0 0 1-37.1456 26.9824l-123.7376-65.0368-123.712 65.0368c-3.7632 1.9712-7.8592 2.944-11.9296 2.944z m135.6288-122.496c4.0832 0 8.192 0.9728 11.9168 2.9312l89.7408 47.1808-17.152-99.9296a25.664 25.664 0 0 1 7.3728-22.6688l72.5888-70.7456-100.3136-14.5664a25.6256 25.6256 0 0 1-19.2768-14.0032l-44.8768-90.9056-44.8384 90.8928a25.6 25.6 0 0 1-19.2896 14.016l-100.3136 14.5664 72.5888 70.7456c6.0416 5.888 8.7936 14.3616 7.3728 22.6688l-17.152 99.9168 89.7152-47.168a25.6 25.6 0 0 1 11.9168-2.9312zM435.2 486.4c-134.1056 0-243.2-109.0944-243.2-243.2S301.0944 0 435.2 0s243.2 109.0944 243.2 243.2-109.0944 243.2-243.2 243.2z m0-435.2c-105.8688 0-192 86.1312-192 192s86.1312 192 192 192 192-86.1312 192-192S541.0688 51.2 435.2 51.2z" fill="#ffffff" p-id="2904"></path><path d="M25.6 896a25.6 25.6 0 0 1-25.6-25.6c0-239.9744 195.2256-435.2 435.2-435.2 135.7312 0 261.3248 61.7088 344.6016 169.2928a25.6256 25.6256 0 0 1-40.4992 31.36C665.8048 540.864 554.9568 486.4 435.2 486.4 223.4624 486.4 51.2 658.6624 51.2 870.4a25.6 25.6 0 0 1-25.6 25.6z" fill="#ffffff" p-id="2905"></path><path d="M780.8 486.4a25.6 25.6 0 0 1 0-51.2c105.8688 0 192-86.1312 192-192S886.6688 51.2 780.8 51.2a25.6 25.6 0 0 1 0-51.2c134.1056 0 243.2 109.0944 243.2 243.2s-109.0944 243.2-243.2 243.2z" fill="#ffffff" p-id="2906"></path><path d="M998.3744 548.864a25.472 25.472 0 0 1-13.5936-3.9296A383.104 383.104 0 0 0 780.8 486.4a25.6 25.6 0 0 1 0-51.2 434.0608 434.0608 0 0 1 231.2064 66.3808 25.5872 25.5872 0 0 1-13.632 47.2832z" fill="#ffffff" p-id="2907"></path></svg>