<?xml version="1.0" standalone="no"?><!DOCTYPE svg PUBLIC "-//W3C//DTD SVG 1.1//EN" "http://www.w3.org/Graphics/SVG/1.1/DTD/svg11.dtd"><svg t="1532945093554" class="icon" style="" viewBox="0 0 1024 1024" version="1.1" xmlns="http://www.w3.org/2000/svg" p-id="7906" xmlns:xlink="http://www.w3.org/1999/xlink" width="46" height="46"><defs><style type="text/css"></style></defs><path d="M960 896H736.0512v-64h224.0512v-512h-256v-256H352.0512c0-35.328 28.672-64 64-64H768l256 256v576c0 35.328-28.672 64-64 64zM768 90.5216V256h165.4784L768 90.5216zM672.0512 384v576c0 35.328-28.672 64-64 64H64C28.672 1024 0 995.328 0 960v-768C0 156.672 28.672 128 64 128h352.0512l256 256z m-256-165.4784V384h165.4784L416.0512 218.5216zM64 960h544.0512v-512h-256v-256H64v768z" p-id="7907"></path></svg>