<?xml version="1.0" standalone="no"?><!DOCTYPE svg PUBLIC "-//W3C//DTD SVG 1.1//EN" "http://www.w3.org/Graphics/SVG/1.1/DTD/svg11.dtd"><svg t="1572857824498" class="icon" viewBox="0 0 1024 1024" version="1.1" xmlns="http://www.w3.org/2000/svg" p-id="2183" xmlns:xlink="http://www.w3.org/1999/xlink" width="32" height="32"><defs><style type="text/css"></style></defs><path d="M957.1549 805.569152c0 42.928718-34.80714 77.734432-77.737617 77.734432L140.90992 883.303584c-42.930477 0-77.737617-34.805714-77.737617-77.734432L63.172303 597.588307c-1.252578-5.428639 0.075728-12.033058 4.62144-19.224854L259.490385 255.43053c11.425682-18.085914 38.261963-32.870642 59.631519-32.870642l400.227359 0c21.370579 0 47.636855 15.144932 58.341077 33.648354l174.833911 321.394894c2.922682 5.086855 4.288852 9.868765 4.421887 14.195304l0.208763 0L957.1549 805.569152zM102.041112 572.365856 102.041112 572.365856l0 19.432585 0 0L102.041112 572.365856zM102.041112 805.569152c0 21.464871 17.404082 38.867216 38.868809 38.867216l738.507363 0c21.46575 0 38.868809-17.403369 38.868809-38.867216l0-194.33608L685.07324 611.233072l0 77.734432c0 21.464871-17.404082 38.867216-38.867785 38.867216L374.122772 727.83472c-21.464727 0-38.868809-17.403369-38.868809-38.867216l0-77.734432L102.041112 611.233072 102.041112 805.569152zM646.205455 669.533896l0-38.867216 0-19.433608L646.205455 572.365856 374.122772 572.365856l0 38.866193 0 19.433608 0 38.867216c0 10.740622 8.692319 19.432585 19.434404 19.432585l233.212851 0C637.513136 688.966481 646.205455 680.274518 646.205455 669.533896zM755.257525 295.075459c-10.704221-18.503423-36.971521-33.648354-58.3421-33.648354L340.530346 261.427104c-21.370579 0-48.205837 14.783705-59.631519 32.870642L122.803822 572.176544l578.192715 0.190335 3.511107 0 196.071454 0L755.257525 295.075459zM257.517369 494.631424c0-10.741645 8.692319-19.433608 19.434404-19.433608l466.425703 0c10.742085 0 19.434404 8.691963 19.434404 19.433608s-8.692319 19.433608-19.434404 19.433608L276.95075 514.065032C266.208665 514.064009 257.517369 505.373069 257.517369 494.631424zM704.508668 436.3306l-388.688086 0c-10.742085 0-19.434404-8.691963-19.434404-19.433608 0-10.741645 8.692319-19.433608 19.434404-19.433608l388.688086 0c10.742085 0 19.434404 8.691963 19.434404 19.433608C723.943072 427.637614 715.250753 436.3306 704.508668 436.3306zM665.638836 358.596168 354.689391 358.596168c-10.742085 0-19.434404-8.691963-19.434404-19.433608 0-10.722202 8.692319-19.433608 19.434404-19.433608l310.949445 0c10.742085 0 19.434404 8.711406 19.434404 19.433608C685.07324 349.904205 676.380921 358.596168 665.638836 358.596168z" p-id="2184"></path></svg>