<?xml version="1.0" standalone="no"?><!DOCTYPE svg PUBLIC "-//W3C//DTD SVG 1.1//EN" "http://www.w3.org/Graphics/SVG/1.1/DTD/svg11.dtd"><svg t="1569579192965" class="icon" viewBox="0 0 1024 1024" version="1.1" xmlns="http://www.w3.org/2000/svg" p-id="6459" xmlns:xlink="http://www.w3.org/1999/xlink" width="30" height="30"><defs><style type="text/css"></style></defs><path d="M159.1 160.6v191.9H351V160.6H159.1z m-32-95.9H383c35.3 0 64 28.6 64 64v255.9c0 35.3-28.6 64-64 64H127.1c-35.3 0-64-28.6-64-64V128.7c0.1-35.4 28.7-64 64-64zM670.9 160.6v191.9h191.9V160.6H670.9z m-32-95.9h255.9c35.3 0 64 28.6 64 64v255.9c0 35.3-28.6 64-64 64H638.9c-35.3 0-64-28.6-64-64V128.7c0-35.4 28.6-64 64-64zM159.1 672.4v191.9H351V672.4H159.1z m-32-96H383c35.3 0 64 28.6 64 64v255.9c0 35.3-28.6 64-64 64H127.1c-35.3 0-64-28.6-64-64V640.4c0.1-35.3 28.7-64 64-64zM670.9 672.4v191.9h191.9V672.4H670.9z m-32-96h255.9c35.3 0 64 28.6 64 64v255.9c0 35.3-28.6 64-64 64H638.9c-35.3 0-64-28.6-64-64V640.4c0-35.3 28.6-64 64-64z" p-id="6460"></path></svg>