<?xml version="1.0" standalone="no"?><!DOCTYPE svg PUBLIC "-//W3C//DTD SVG 1.1//EN" "http://www.w3.org/Graphics/SVG/1.1/DTD/svg11.dtd"><svg t="1525945466239" class="icon" style="" viewBox="0 0 1024 1024" version="1.1" xmlns="http://www.w3.org/2000/svg" p-id="5951" xmlns:xlink="http://www.w3.org/1999/xlink" width="32" height="32"><defs><style type="text/css"></style></defs><path d="M634.688 448C529.088 448 448 534.4 448 640l0 192 0 64 58.688 0 320 0L896 896l0-64 0-192c0-105.6-91.712-192-197.312-192L634.688 448zM832 640l0 192-192 0 0-128L576 704l0 128L512 832l0-192c0-70.592 52.096-128 122.688-128l64 0C769.28 512 832 569.408 832 640zM960 960l0 64L384 1024l0-64L960 960zM173.312 896 320 896l0 64L128 960 64 960c-17.664 0-32-14.336-32-32S46.336 896 64 896l41.408 0 67.968-191.104C68.992 636.224 0 518.272 0 384c0-212.096 171.904-384 384-384s384 171.904 384 384c0 3.584-0.576 6.976-0.64 10.496C746.944 388.8 704 385.024 704 384.512 704 384.384 704 384.192 704 384c0-176.448-143.552-320-320-320S64 207.552 64 384c0 105.92 52.352 199.296 131.904 257.6 17.536 12.864 36.16 24 56.128 33.088C292.352 693.12 336.832 704 384 704l0 64c-54.72 0-106.624-11.648-153.728-32.256L173.312 896zM273.472 448c0 60.928 49.6 110.528 110.528 110.528 4.864 0 9.472-0.832 14.144-1.408C391.36 577.792 387.2 599.552 385.664 622.4 385.088 622.4 384.576 622.528 384 622.528c-45.632 0-86.784-17.92-117.888-46.528C231.488 544.128 209.472 498.816 209.472 448c0-96.384 78.144-174.528 174.528-174.528 79.36 0 145.6 53.312 166.784 125.824-20.736 7.36-40.576 16.512-58.24 28.736C483.072 376.64 438.144 337.472 384 337.472 323.072 337.472 273.472 387.072 273.472 448zM384 238.528C358.272 238.528 337.472 217.728 337.472 192S358.272 145.472 384 145.472 430.528 166.272 430.528 192 409.728 238.528 384 238.528z" p-id="5952"></path></svg>