<?xml version="1.0" standalone="no"?><!DOCTYPE svg PUBLIC "-//W3C//DTD SVG 1.1//EN" "http://www.w3.org/Graphics/SVG/1.1/DTD/svg11.dtd"><svg t="1547462107816" class="icon" style="" viewBox="0 0 1024 1024" version="1.1" xmlns="http://www.w3.org/2000/svg" p-id="6265" xmlns:xlink="http://www.w3.org/1999/xlink" width="100" height="100"><defs><style type="text/css"></style></defs><path d="M217.184 830.94c0 73.886 3.023 82.327 72.578 82.327h108.274v-219.237c0-44.451 11.793-51.962 49.318-51.962h123.983c37.497 0 59.134 7.511 59.134 51.962v219.237h98.411c69.553 0 82.437-8.443 82.437-82.327v-460.094c0.042-3.023 0.579-6.015 1.644-8.818l-303.654-228.478-296.415 223.102c2.689 4.065 4.289 8.928 4.289 14.218v460.069z" fill="#CFCF5A" p-id="6266"></path><path d="M604.679 913.267v-219.237c0-25.635-4.953-26.143-33.346-26.143h-123.983c-28.413 0-23.525 0.489-23.525 26.143v219.237h180.854z" fill="#FFFFFF" p-id="6267"></path><path d="M842.426 924.198v-0.354c-0.56 0.835-0.979 1.821-1.199 2.873l1.199-2.519z" fill="#CFCF5A" p-id="6268"></path><path d="M951.078 401.35l-426.219-320.761c-0.463-0.332-0.911-0.512-1.333-0.822-0.733-0.463-1.441-0.953-2.243-1.333-3.569-1.86-7.792-2.955-12.271-2.955-0.771 0-1.533 0.031-2.286 0.096-4.987 0.527-9.547 2.422-13.322 5.3 1.089-0.796 0.688-0.618 0.332-0.306l-426.19 320.718c-5.987 4.759-9.797 12.046-9.797 20.221 0 5.858 1.953 11.261 5.245 15.584 8.395 11.107 24.19 13.555 35.609 5.443l66.894-50.337v438.657c0 101.476 26.459 134.023 124.249 134.023h439.122c57.113 0 93.146-11.264 113.34-40.74l0.221-0.354c14.193-20.947 20.529-50.983 20.529-92.947v-431.149l57.026 42.895c4.27 3.25 9.682 5.206 15.552 5.206 14.258 0 25.824-11.559 25.824-25.824 0-8.393-4.003-15.853-10.21-20.567zM509.311 133.547l303.654 228.478c-1.036 2.687-1.636 5.795-1.644 9.043l0.001 459.871c0 73.886-12.882 82.327-82.437 82.327h-98.411v-219.237c0-44.451-21.638-51.962-59.134-51.962h-123.983c-37.497 0-49.318 7.511-49.318 51.962v219.237h-108.274c-69.553 0-72.578-8.443-72.578-82.327v-460.094c0-5.263-1.599-10.155-4.289-14.218l296.415-223.079zM447.355 667.902h123.983c28.393 0 33.346 0.489 33.346 26.143v219.237h-180.854v-219.237c0-25.657-4.885-26.143 23.525-26.143z" fill="#504C23" p-id="6269"></path><path d="M439.759 264.524l-168.301 129.981c-3.199 2.421-2.575 6.197-2.575 10.244v146.906c0 7.121 5.772 12.896 12.896 12.896s12.896-5.772 12.896-12.896v-140.576l162.326-126.048c5.684-4.332 4.576-12.465 0.268-18.102-2.070-2.82-5.259-4.716-8.899-5.025 0.159 0.003-0.395-0.029-0.95-0.029-2.899 0-5.571 0.999-7.682 2.678zM281.764 590.397c-7.118 0.006-12.882 5.787-12.882 12.906 0 0.004 0 0.007 0 0.023v12.906c0 4.601 2.468 8.865 6.415 11.197 0.007 7.118 5.788 12.881 12.906 12.881 7.131 0 12.906-5.781 12.906-12.906 0-4.747-2.565-8.898-6.383-11.138l-0.061-12.941c0-0.025 0-0.058 0-0.090 0-7.089-5.749-12.841-12.841-12.841-0.023 0-0.048 0-0.070 0z" fill="#848D2F" p-id="6270"></path></svg>