<?xml version="1.0" standalone="no"?><!DOCTYPE svg PUBLIC "-//W3C//DTD SVG 1.1//EN" "http://www.w3.org/Graphics/SVG/1.1/DTD/svg11.dtd"><svg t="1553581739657" class="icon" style="" viewBox="0 0 1024 1024" version="1.1" xmlns="http://www.w3.org/2000/svg" p-id="4193" xmlns:xlink="http://www.w3.org/1999/xlink" width="30" height="30"><defs><style type="text/css"></style></defs><path d="M792.77936 984.843188c-31.732725 0-61.761646-6.0416-90.095971-18.134009-28.333302-12.088316-53.079916-28.708855-74.233702-49.865711-21.151739-21.155832-37.773302-45.89733-49.864688-74.229608-12.087293-28.333302-18.134009-58.362222-18.134009-90.099041 0-31.732725 6.046716-61.761646 18.134009-90.094948 12.090363-28.333302 28.713972-52.892651 49.864688-73.66372 21.153786-20.780279 45.899376-37.214577 74.233702-49.300846 28.333302-12.091386 58.363246-18.136056 90.095971-18.136056 31.734772 0 61.764716 6.043646 90.098018 18.136056 28.333302 12.08627 52.887534 28.520567 73.664743 49.300846 20.779256 20.774139 37.20946 45.333488 49.299823 73.66372 12.087293 28.333302 18.137079 58.362222 18.137079 90.094948 0 31.736818-6.049786 61.765739-18.137079 90.099041-12.088316 28.334325-28.520567 53.073776-49.299823 74.229608-20.780279 21.157879-45.332465 37.778418-73.664743 49.865711C854.545098 978.801589 824.514131 984.843188 792.77936 984.843188L792.77936 984.843188zM907.244344 715.118094l-83.865059 0 0-78.196966c0-10.580986-3.39533-19.644409-10.19827-27.203572-6.800893-7.553023-15.489786-11.332093-26.069749-11.332093-10.574846 0-18.886139 3.77907-24.928762 11.332093-6.042623 7.559163-9.06854 16.622586-9.06854 27.203572l0 78.196966-73.664743 0c-10.574846 0-19.640316 3.773953-27.197432 11.334139-7.55507 7.553023-11.333116 16.622586-11.333116 27.197432s3.778046 18.511609 11.333116 23.802102c7.557116 5.288446 16.622586 7.928576 27.197432 7.928576l73.664743 0 0 80.465636c0 10.580986 3.025916 19.644409 9.06854 27.199479 6.042623 7.559163 14.353916 11.332093 24.928762 11.332093 10.579963 0 19.266809-3.773953 26.069749-11.332093 6.800893-7.55507 10.19827-16.618493 10.19827-27.199479l0-80.465636 83.865059 0 0 2.26867c10.578939 0 19.643386-3.019777 27.198455-9.063423 7.559163-6.04774 11.332093-14.360056 11.332093-24.934902s-3.773953-19.644409-11.332093-27.197432C926.888753 718.892047 917.823284 715.118094 907.244344 715.118094L907.244344 715.118094zM627.32098 432.927083c-3.022847 12.085246-6.048763 23.041786-9.069563 32.864502-3.0208 8.311293-6.800893 16.810874-11.332093 25.498744-4.53427 8.686846-9.44307 15.300474-14.731516 19.832697-6.800893 5.28947-11.522428 10.956539-14.167674 17.000186-2.644223 6.0416-4.91494 12.271488-6.800893 18.696828-1.886977 6.423293-3.966335 13.030781-6.229888 19.832697-2.270716 6.800893-6.048763 13.600763-11.332093 20.398586-17.382902 22.664186-30.41573 44.578288-39.1036 65.733097s-14.731516 41.553395-18.132986 61.200874c-3.3984 19.642362-4.344958 39.101553-2.835581 58.362222 1.512447 19.268856 4.533246 37.968753 9.069563 56.099692 3.021823 13.596669 7.554046 27.76332 13.596669 42.49893 6.04774 14.730493 14.924921 29.843702 26.631544 45.333488 11.710716 15.487739 26.63359 30.594809 44.769646 45.331441 18.129916 14.731516 40.794102 28.89612 67.997674 42.49893-18.135032 3.774977-39.290865 7.17747-63.466474 10.199293-20.402679 2.270716-45.520753 4.342912-75.362408 6.229888-29.844725 1.895163-64.036455 2.835581-102.56598 2.835581-19.646456 0-42.49893-0.753153-68.564585-2.264577-26.068725-1.511423-52.885488-3.40147-80.465636-5.666046-27.574009-2.26867-54.778604-4.912893-81.598436-7.934716-26.816762-3.021823-51.376111-6.231935-73.664743-9.633405-22.285562-3.397377-41.177841-6.989181-56.665581-10.766205-15.483646-3.777023-25.119097-7.17747-28.898167-10.197246-6.79987-6.049786-12.085246-22.86066-15.864316-50.435693-3.77907-27.570939-2.645247-63.652715 3.3984-108.228957 3.778046-24.932856 13.789051-44.008306 30.03199-57.235562 16.244986-13.219069 35.32146-23.605627 57.235562-31.16479 21.906939-7.55507 44.763506-14.544251 68.563562-20.967544 23.799032-6.4192 44.7676-15.295358 62.901609-26.627451 14.354939-9.067516 25.310456-17.570167 32.864502-25.50079 7.553023-7.934716 12.842493-16.054651 15.864316-24.367991 3.021823-8.306176 4.533246-17.000186 4.533246-26.064632 0-9.06547-0.376577-18.887163-1.1328-29.468149-1.51347-15.865339-6.984065-28.333302-16.431228-37.396725-9.445116-9.069563-19.456121-18.136056-30.03199-27.199479-6.048763-4.53734-11.333116-11.33107-15.869433-20.401656-4.533246-9.063423-8.3072-17.752316-11.333116-26.062586-3.773953-9.82374-6.7968-20.779256-9.06547-32.864502-5.28947-1.511423-10.19827-3.77907-14.730493-6.800893-3.77907-3.021823-7.93574-7.559163-12.468986-13.602809-4.532223-6.0416-8.68787-15.107069-12.467963-27.198455-3.77907-11.333116-5.101181-21.907962-3.966335-31.729655 1.131777-9.82374 3.214205-18.134009 6.236028-24.935925 3.021823-8.311293 7.176446-15.489786 12.462846-21.531386 0-25.688055 1.515516-51.376111 4.538363-77.069283 3.021823-21.906939 7.741311-45.332465 14.166651-70.260204 6.4192-24.935925 16.810874-47.224558 31.165814-66.86385 13.596669-18.892279 28.14399-34.382065 43.62866-46.466288 15.488763-12.091386 31.546483-21.532409 48.164976-28.333302 16.621563-6.801916 33.244148-11.521404 49.867758-14.166651C383.279848 1.323135 399.149281 0 414.25942 0 433.902806 0 452.788945 2.269693 470.923978 6.801916c18.132986 4.5312 34.942837 10.574846 50.432623 18.134009 15.491833 7.553023 29.278837 16.053628 41.365106 25.498744 12.090363 9.441023 21.913079 19.073404 29.468149 28.89612 17.375739 21.908986 30.030967 46.090734 37.968753 72.529897 7.9296 26.446325 13.782911 51.376111 17.561981 74.79959 3.77907 27.198455 5.291516 54.395888 4.53427 81.601506 4.533246 3.773953 8.311293 8.306176 11.332093 13.595646 3.019777 4.532223 5.290493 10.580986 6.800893 18.134009 1.512447 7.553023 1.512447 16.999163 0 28.333302-1.511423 14.354939-4.53427 25.688055-9.0624 33.999348-4.538363 8.312316-9.445116 14.730493-14.736633 19.268856C640.541073 426.87832 634.116757 430.65739 627.32098 432.927083L627.32098 432.927083z" p-id="4194"></path></svg>